<svg width="30" height="30" viewBox="0 0 30 30" fill="none" xmlns="http://www.w3.org/2000/svg">
<path d="M15.0001 10.3125C14.073 10.3125 13.1667 10.5874 12.3958 11.1025C11.625 11.6176 11.0242 12.3496 10.6694 13.2062C10.3146 14.0627 10.2218 15.0052 10.4027 15.9145C10.5835 16.8238 11.03 17.659 11.6855 18.3146C12.3411 18.9701 13.1763 19.4166 14.0856 19.5974C14.9949 19.7783 15.9374 19.6855 16.7939 19.3307C17.6504 18.9759 18.3825 18.3751 18.8976 17.6042C19.4127 16.8334 19.6876 15.9271 19.6876 15C19.6839 13.7579 19.1888 12.5678 18.3105 11.6895C17.4323 10.8113 16.2421 10.3162 15.0001 10.3125ZM25.1204 15C25.118 15.438 25.0859 15.8753 25.0243 16.309L27.8772 18.5426C28.0015 18.6452 28.0852 18.7886 28.1134 18.9473C28.1417 19.1059 28.1126 19.2694 28.0313 19.4086L25.3325 24.068C25.2505 24.2059 25.1224 24.3105 24.9709 24.3633C24.8193 24.4162 24.654 24.4139 24.504 24.3568L21.1495 23.0092C20.451 23.5471 19.6866 23.9935 18.8749 24.3375L18.3733 27.8988C18.3453 28.0584 18.2627 28.2032 18.1396 28.3085C18.0166 28.4139 17.8609 28.4733 17.6989 28.4766H12.3013C12.1423 28.4735 11.989 28.4166 11.8665 28.3152C11.744 28.2137 11.6595 28.0738 11.6268 27.9182L11.1253 24.3568C10.3113 24.0168 9.54639 23.5697 8.85067 23.0273L5.49618 24.375C5.34623 24.4321 5.18096 24.4345 5.02942 24.3817C4.87789 24.329 4.74979 24.2245 4.66766 24.0867L1.96883 19.4279C1.8876 19.2888 1.85849 19.1252 1.88672 18.9666C1.91496 18.808 1.99868 18.6645 2.12293 18.5619L4.97586 16.3283C4.91501 15.8881 4.88291 15.4444 4.87977 15C4.88221 14.562 4.91431 14.1247 4.97586 13.691L2.12293 11.4574C1.99868 11.3548 1.91496 11.2114 1.88672 11.0527C1.85849 10.8941 1.8876 10.7306 1.96883 10.5914L4.66766 5.93203C4.7497 5.7941 4.87776 5.68952 5.0293 5.63668C5.18084 5.58384 5.34616 5.58614 5.49618 5.64316L8.85067 6.99082C9.54918 6.45294 10.3136 6.00655 11.1253 5.6625L11.6268 2.10117C11.6549 1.94165 11.7375 1.79683 11.8605 1.69145C11.9835 1.58608 12.1393 1.52669 12.3013 1.52344H17.6989C17.8579 1.52653 18.0112 1.58343 18.1336 1.68485C18.2561 1.78627 18.3406 1.92621 18.3733 2.08184L18.8749 5.64316C19.6899 5.98299 20.4558 6.4301 21.1524 6.97266L24.504 5.625C24.6539 5.56792 24.8192 5.56554 24.9707 5.61827C25.1223 5.67099 25.2504 5.77545 25.3325 5.91328L28.0313 10.5727C28.1126 10.7118 28.1417 10.8753 28.1134 11.034C28.0852 11.1926 28.0015 11.3361 27.8772 11.4387L25.0243 13.6723C25.0851 14.1123 25.1172 14.5558 25.1204 15Z" fill="#F5C330"/>
</svg>
